<?xml version="1.0" encoding="utf-8"?>
<?xml-stylesheet type="text/xsl" href="rss1.xsl"?>
<rss version="2.0" xmlns:atom="http://www.w3.org/2005/Atom" xmlns:content="http://purl.org/rss/1.0/modules/content/" xmlns:dc="http://purl.org/dc/elements/1.1/" xmlns:media="http://search.yahoo.com/mrss/">
<channel>
 <title>Getty</title>
 <link>http://www.gettyimg.com/</link>
 <atom:link href="http://www.gettyimg.com/" rel="self" type="application/rss+xml" />

 
                <item>
                <title><![CDATA[【Music Videos】Travis Scott, Bad Bunny &amp; The Weeknd - K-POP [4K HEVC 10-bit | PCM 24-bit 88.2 kHz | DD+ Dolby Atmos]]]></title>
                <link><![CDATA[https://sharemania.us/threads/travis-scott-bad-bunny-the-weeknd-k-pop-4k-hevc-10-bit-pcm-24-bit-88-2-khz-dd-dolby-atmos.225187/]]></link>
                <description><![CDATA[<article>
<blockquote class="messageText SelectQuoteContainer ugc baseHtml">
<b><img src="https://images2.imgbox.com/12/bb/YEVzIz7n_o.jpg" class="bbCodeImage LbImage" alt="[​IMG]" data-url="https://images2.imgbox.com/12/bb/YEVzIz7n_o.jpg" style=""> <br>
<br>
Genre: <span style="color: #0059b3">Hip Hop, Reggae, Funk / Soul, Pop</span><br>
Style: <span style="color: #0059b3">Dancehall, Funk, Pop Rap, Afrobeat, RnB/Swing</span><br>
Year: <span style="color: #0059b3">2023</span><br>
Video Source: <span style="color: #0059b3">Apple Music, thanks SonMaxime</span><br>
Audio Source: <span style="color: #0059b3">Qobuz &amp; Apple Music, thanks moi &amp; SonMaxime</span></b><br>
<br>
"<b>K-POP</b>" is a song by American rapper Travis Scott, Puerto Rican rapper Bad Bunny and Canadian singer the Weeknd, released on July 21, 2023, through Epic and Cactus Jack Records as the lead single from Scott's upcoming fourth studio album <i>Utopia</i>. Contrary to its title, the song isn't about the popular Korean music genre; rather, it delves into the concept of a lollipop containing the drug "Ketamine". The three artists wrote the song with producers Illangelo, BNYX of Working on Dying, Boi-1da, and Jahaan Sweet.<br>
<br>
Scott announced the collaboration on his social media accounts on July 19, 2023. Both Bad Bunny and the Weeknd had previously been among artists named to appear on <i>Utopia</i>, with Scott previewing an unreleased song featuring Bad Bunny at a club in Monaco in May 2023. Bad Bunny said in an interview with <i>Rolling Stone</i> in its July/August 2023 issue that he and Scott "worked on that a while back".<br>
<br>
An accompanying music video for "K-pop" was released on July 21, 2023. The video features Scott "getting his groove on" in an empty football stadium that has been covered with <i>Utopia</i> branding. He teases a potential stadium tour in support of <i>Utopia</i> with signage that reads "Stadium Tour Rehearsal", while sharing a look at his upcoming sneaker collaboration with Air Jordan. Bad Bunny is seen making his way through a nightclub, and the Weeknd is spotted enjoying a meal with Scott in a "unique" mansion surrounded by women. The visual features cameo appearances from Matthew Williams, Pharrell Williams, and SZA.<br>
<br>
<b>Release Info</b><br>
The video track is downloaded from Apple Music by SonMaxime, left as is (2160p HEVC 10-bit).<br>
The PCM track is lossless (Qobuz, HiRes 24-bit 88.2 kHz), edited and synced with Adobe Audition.<br>
The Dolby Atmos track is lossy (Dolby Digital Plus), synced by muxing.<br>
The timed lyrics are synced and edited to match the music video.<br>
Enable the subtitles to see the lyrics.<br>
<br>
<div class="ToggleTriggerAnchor bbCodeSpoilerContainer">
<button type="button" class="button bbCodeSpoilerButton ToggleTrigger Tooltip JsOnly" data-target="> .SpoilerTarget"><span>Spoiler: <span class="SpoilerTitle">Media Info</span></span></button>
<div class="SpoilerTarget bbCodeSpoilerText">
<div class="bbCodeBlock bbCodeCode">
<div class="type">Code:</div>
<pre>General
Unique ID                      : 228517499266155427925161328924878491405 (0xABEADE9547707FC16733C031DF94CF0D)
Complete name                  : Travis Scott, Bad Bunny &amp; The Weeknd - K-POP.mkv
Format                         : Matroska
Format version                 : Version 4 / Version 2
File size                      : 645 MiB
Duration                       : 3 min 30 s
Overall bit rate               : 25.7 Mb/s
Frame rate                     : 24.000 FPS
Encoded date                   : 2023-07-25 15:05:58 UTC
Writing application            : mkvmerge v76.0 ('Celebration') 64-bit
Writing library                : libebml v1.4.4 + libmatroska v1.7.1

Video
ID                             : 1
Format                         : HEVC
Format/Info                    : High Efficiency Video Coding
Format profile                 : Main 10@L5@High
Codec ID                       : V_MPEGH/ISO/HEVC
Duration                       : 3 min 30 s
Bit rate                       : 20.5 Mb/s
Width                          : 3 840 pixels
Height                         : 2 160 pixels
Display aspect ratio           : 16:9
Frame rate mode                : Constant
Frame rate                     : 24.000 FPS
Color space                    : YUV
Chroma subsampling             : 4:2:0
Bit depth                      : 10 bits
Bits/(Pixel*Frame)             : 0.103
Stream size                    : 515 MiB (80%)
Default                        : Yes
Forced                         : No
Color range                    : Limited
Color primaries                : BT.709
Transfer characteristics       : BT.709
Matrix coefficients            : BT.709

Audio #1
ID                             : 2
Format                         : PCM
Format settings                : Little / Signed
Codec ID                       : A_PCM/INT/LIT
Duration                       : 3 min 30 s
Bit rate mode                  : Constant
Bit rate                       : 4 234 kb/s
Channel(s)                     : 2 channels
Sampling rate                  : 88.2 kHz
Frame rate                     : 25.002 FPS (3528 SPF)
Bit depth                      : 24 bits
Stream size                    : 106 MiB (16%)
Title                          : 24-bit 88.2 kHz
Language                       : English
Default                        : Yes
Forced                         : No

Audio #2
ID                             : 3
Format                         : E-AC-3 JOC
Format/Info                    : Enhanced AC-3 with Joint Object Coding
Commercial name                : Dolby Digital Plus with Dolby Atmos
Codec ID                       : A_EAC3
Duration                       : 3 min 5 s
Bit rate mode                  : Constant
Bit rate                       : 768 kb/s
Channel(s)                     : 6 channels
Channel layout                 : L R C LFE Ls Rs
Sampling rate                  : 48.0 kHz
Frame rate                     : 31.250 FPS (1536 SPF)
Compression mode               : Lossy
Delay relative to video        : 4 s 60 ms
Stream size                    : 17.0 MiB (3%)
Title                          : Dolby Digital Plus with Dolby Atmos
Language                       : English
Service kind                   : Complete Main
Default                        : No
Forced                         : No
Complexity index               : 16
Number of dynamic objects      : 15
Bed channel count              : 1 channel
Bed channel configuration      : LFE

Audio #3
ID                             : 4
Format                         : AAC LC
Format/Info                    : Advanced Audio Codec Low Complexity
Codec ID                       : A_AAC-2
Duration                       : 3 min 30 s
Bit rate                       : 265 kb/s
Channel(s)                     : 2 channels
Channel layout                 : L R
Sampling rate                  : 48.0 kHz
Frame rate                     : 46.875 FPS (1024 SPF)
Compression mode               : Lossy
Stream size                    : 6.63 MiB (1%)
Language                       : English
Default                        : No
Forced                         : No

Text
ID                             : 5
Format                         : UTF-8
Codec ID                       : S_TEXT/UTF8
Codec ID/Info                  : UTF-8 Plain Text
Duration                       : 2 min 55 s
Bit rate                       : 98 b/s
Frame rate                     : 0.383 FPS
Count of elements              : 67
Stream size                    : 2.10 KiB (0%)
Title                          : Lyrics
Language                       : English
Default                        : No
Forced                         : No
</pre>
</div></div>
</div><br>
<div class="bbCodeBlock bbCodeVfcHH HiddenContent">
<div class="attribution type">Hidden Content:</div>
<blockquote>You must reply before you can see the hidden data contained here.</blockquote>
</div>
<div class="messageTextEndMarker">&nbsp;</div>
</blockquote>
</article>]]></description>
                <author><![CDATA[ADHDerby]]></author>
                </item>

                
                <item>
                <title><![CDATA[【Requests】[REQ AUD] - Dawn Richard - Blackheart in 16 Bit (LOSSLESS)]]></title>
                <link><![CDATA[https://sharemania.us/threads/dawn-richard-blackheart-in-16-bit-lossless.225188/]]></link>
                <description><![CDATA[<article>
<blockquote class="messageText SelectQuoteContainer ugc baseHtml">
Anyone have the Dawn Richard - Blackheart album lossless [16 Bit] ? Thanks in advance!!!<br>
<img src="https://i.discogs.com/az6dbFvAHEHCogC-0_XCn_YcxvYOheo8j2M2htCToGQ/rs:fit/g:sm/q:90/h:600/w:600/czM6Ly9kaXNjb2dz/LWRhdGFiYXNlLWlt/YWdlcy9SLTY1Mjg5/NDctMTQyMTMyMjYy/NC01MzAwLmpwZWc.jpeg" class="bbCodeImage LbImage" alt="[​IMG]" data-url="https://i.discogs.com/az6dbFvAHEHCogC-0_XCn_YcxvYOheo8j2M2htCToGQ/rs:fit/g:sm/q:90/h:600/w:600/czM6Ly9kaXNjb2dz/LWRhdGFiYXNlLWlt/YWdlcy9SLTY1Mjg5/NDctMTQyMTMyMjYy/NC01MzAwLmpwZWc.jpeg" style="">
<div class="messageTextEndMarker">&nbsp;</div>
</blockquote>
</article>]]></description>
                <author><![CDATA[Vexing101]]></author>
                </item>

                </channel></rss>